<svg width="20" height="20" viewBox="0 0 20 20" fill="none" xmlns="http://www.w3.org/2000/svg">
<g clip-path="url(#clip0_100_6966)">
<path d="M0.909182 7.87892H1.81827V17H3.63644V7.87892H6.66672V17H8.48489V7.87892H11.5152V17H13.3333V7.87892H16.3636V17H18.1818V7.87892H19.0909C19.4914 7.87892 19.8449 7.61668 19.9609 7.23329C20.077 6.8499 19.9285 6.43566 19.5951 6.21342L10.5043 0.152849C10.1989 -0.0506649 9.80107 -0.0506649 9.49573 0.152849L0.404882 6.21342C0.0715506 6.43566 -0.0769939 6.8499 0.039066 7.23329C0.155187 7.61668 0.508639 7.87892 0.909182 7.87892Z" fill="#8E99AC"/>
<path d="M19.0909 18H18.1818H16.3636H13.3333H11.5152H8.48485H6.66667H3.63636H1.81818H0.909091C0.40703 18 0 18.1919 0 18.4286V19.5714C0 19.8081 0.40703 20 0.909091 20H19.0909C19.593 20 20 19.8081 20 19.5714V18.4286C20 18.1919 19.593 18 19.0909 18Z" fill="#8E99AC"/>
</g>
<defs>
<clipPath id="clip0_100_6966">
<rect width="20" height="20" fill="white"/>
</clipPath>
</defs>
</svg>
