<svg width="30" height="25" viewBox="0 0 30 25" fill="none" xmlns="http://www.w3.org/2000/svg">
<g clip-path="url(#clip0_1352_4330)">
<path d="M28.5672 22.2185L25.8694 20.8695V1.5652C25.8693 0.700734 25.1686 0 24.3041 0H7.08673C6.22227 0 5.52148 0.700734 5.52148 1.5652V3.13041H22.7389V20.8695L20.0411 22.2185C19.7759 22.351 19.6085 22.622 19.6085 22.9185V23.7391C19.6085 23.8832 19.7253 24 19.8693 24H28.7389C28.8829 24 28.9997 23.8832 28.9997 23.7391V22.9185C28.9998 22.622 28.8323 22.351 28.5672 22.2185Z" fill="#2E8BC0"/>
<path d="M17.5217 9.91312H15.9565V8.34792C15.9565 7.48481 15.2544 6.78271 14.3913 6.78271H6.5652C5.70209 6.78271 5 7.48481 5 8.34792V11.4784H15.1739H15.9565H17.5217V17.7392H15.9565V13.0436H5V22.4349C5 23.298 5.70209 24.0001 6.5652 24.0001H14.3913C15.2544 24.0001 15.9565 23.298 15.9565 22.4349V19.3044H17.5217C18.3848 19.3044 19.0869 18.6023 19.0869 17.7392V11.4784C19.087 10.6152 18.3849 9.91312 17.5217 9.91312ZM10.4783 20.8696C9.18364 20.8696 8.13045 19.8164 8.13045 18.5218C8.13045 18.1106 8.23897 17.7058 8.44409 17.3504L9.80037 15.0001C9.94025 14.7581 10.1986 14.6088 10.4783 14.6088C10.758 14.6088 11.0164 14.758 11.1562 15.0001L12.513 17.3507C12.513 17.351 12.513 17.351 12.513 17.351C12.7179 17.7064 12.8261 18.1112 12.8261 18.5219C12.8261 19.8165 11.7729 20.8696 10.4783 20.8696Z" fill="#2E8BC0"/>
</g>
<defs>
<clipPath id="clip0_1352_4330">
<rect width="24" height="24" fill="white" transform="translate(5)"/>
</clipPath>
</defs>
</svg>
